<?xml version="1.0" standalone="no"?>
<!DOCTYPE svg PUBLIC "-//W3C//DTD SVG 20010904//EN"
 "http://www.w3.org/TR/2001/REC-SVG-20010904/DTD/svg10.dtd">
<svg version="1.0" xmlns="http://www.w3.org/2000/svg"
 width="243.000000pt" height="243.000000pt" viewBox="0 0 243.000000 243.000000"
 preserveAspectRatio="xMidYMid meet">
<metadata>
Created by potrace 1.11, written by Peter Selinger 2001-2013
</metadata>
<g transform="translate(0.000000,243.000000) scale(0.100000,-0.100000)"
fill="#000000" stroke="none">
<path d="M991 2395 c-253 -48 -476 -169 -654 -354 -347 -362 -432 -896 -213
-1345 29 -61 61 -120 69 -131 15 -19 17 -15 19 65 5 163 6 159 -50 244 -75
114 -79 136 -46 259 56 214 56 224 4 213 -17 -3 -30 -3 -30 -1 0 2 26 35 58
72 85 99 95 117 90 160 -3 21 -8 45 -12 54 -9 20 27 35 100 42 l50 6 12 -67
c21 -122 39 -168 91 -224 l48 -52 17 31 c20 39 20 72 1 97 -25 33 -17 64 26
110 56 61 142 126 167 126 29 0 71 -54 78 -102 5 -27 14 -43 28 -50 12 -5 27
-23 33 -39 13 -34 37 -31 50 7 l8 24 50 -40 50 -39 23 22 c63 58 63 116 1 148
-41 21 -46 33 -28 73 14 29 34 36 112 36 l58 0 39 63 c22 34 40 67 40 74 0 6
-16 31 -36 55 -54 64 -63 87 -39 105 16 11 38 13 103 7 l82 -6 26 56 c33 71
42 135 23 147 -8 5 -38 9 -66 9 -57 0 -64 9 -33 40 17 17 33 20 126 20 105 0
106 0 134 -30 30 -32 40 -26 40 26 0 29 -13 35 -150 71 -120 31 -380 41 -499
18z"/>
<path d="M1493 2125 c-3 -9 -3 -29 0 -44 5 -25 1 -32 -34 -56 -59 -38 -40 -42
35 -7 65 30 65 31 56 62 -16 54 -44 77 -57 45z"/>
<path d="M1211 1404 c-80 -101 -80 -125 4 -139 22 -4 47 -9 56 -11 11 -3 21 5
29 25 6 16 20 37 31 47 14 13 16 20 8 31 -6 7 -13 34 -14 61 -2 26 -4 50 -4
55 -1 4 -12 7 -25 7 -18 0 -40 -19 -85 -76z"/>
<path d="M840 1363 c0 -3 37 -45 82 -95 96 -104 141 -134 221 -143 52 -7 57
-6 57 12 0 13 -14 23 -49 36 -32 11 -69 38 -114 82 -37 35 -82 72 -99 81 -35
18 -98 35 -98 27z"/>
<path d="M1645 1312 c36 -22 81 -74 90 -101 5 -17 10 -18 30 -9 17 7 32 7 56
-1 45 -16 99 -14 99 3 0 23 -39 65 -87 93 -38 22 -61 27 -132 31 l-86 4 30
-20z"/>
<path d="M1798 1079 l-3 -74 -33 2 c-47 2 -62 19 -62 69 l0 44 -38 0 c-47 0
-82 -24 -82 -56 0 -26 -11 -30 -41 -14 -28 16 -119 -61 -119 -100 0 -23 -5
-29 -32 -34 -18 -3 -48 -15 -67 -27 -32 -20 -33 -22 -27 -67 8 -58 42 -162 61
-188 14 -19 15 -18 57 5 24 13 70 39 103 57 96 54 158 42 215 -41 28 -40 35
-45 69 -45 33 0 43 6 73 43 45 55 73 103 88 150 10 32 9 46 -4 87 -17 53 -64
136 -120 214 l-35 50 -3 -75z"/>
<path d="M2130 711 c0 -36 -6 -44 -66 -97 -58 -51 -102 -109 -92 -120 6 -6
125 75 157 107 33 33 46 75 36 119 -10 45 -35 39 -35 -9z"/>
<path d="M1770 564 c0 -16 22 -44 35 -44 13 0 35 28 35 44 0 3 -16 6 -35 6
-19 0 -35 -3 -35 -6z"/>
<path d="M1463 234 c-7 -3 -9 -12 -6 -19 4 -12 -18 -15 -124 -17 -124 -3 -128
-4 -131 -25 -3 -22 -8 -23 -85 -24 -45 -1 -116 -4 -157 -8 -67 -5 -75 -8 -78
-28 -2 -12 1 -31 7 -41 25 -46 344 -69 522 -37 46 8 122 28 169 44 132 45 132
45 75 51 -36 4 -51 10 -53 22 -3 13 6 17 40 20 40 3 43 5 43 33 l0 30 -105 2
c-58 1 -110 -1 -117 -3z"/>
</g>
</svg>
