<?xml version="1.0" encoding="UTF-8"?>
<svg width="9px" height="16px" viewBox="0 0 9 16" version="1.1" xmlns="http://www.w3.org/2000/svg" xmlns:xlink="http://www.w3.org/1999/xlink">
    <!-- Generator: sketchtool 49.2 (51160) - http://www.bohemiancoding.com/sketch -->
    <title>AFE34924-8C8E-46B5-9867-628923CE73E0</title>
    <desc>Created with sketchtool.</desc>
    <defs></defs>
    <g id="Page-1" stroke="none" stroke-width="1" fill="none" fill-rule="evenodd">
        <g id="Desktop-HD-Copy-8" transform="translate(-694.000000, -6014.000000)" fill="#FFFFFF" fill-rule="nonzero">
            <g id="Group-9" transform="translate(640.000000, 6014.000000)">
                <g id="facebook-letter-logo-copy" transform="translate(54.540933, 0.000000)">
                    <path d="M1.75030493,3.04523991 C1.75030493,3.44148667 1.75030493,5.21010206 1.75030493,5.21010206 L0.0276357667,5.21010206 L0.0276357667,7.85730388 L1.75030493,7.85730388 L1.75030493,15.7238568 L5.28903309,15.7238568 L5.28903309,7.85752323 L7.66368399,7.85752323 C7.66368399,7.85752323 7.88608044,6.58821021 7.99388375,5.2003412 C7.68480788,5.2003412 5.3024142,5.2003412 5.3024142,5.2003412 C5.3024142,5.2003412 5.3024142,3.66028332 5.3024142,3.39034273 C5.3024142,3.11981721 5.68824286,2.75592384 6.06958467,2.75592384 C6.45021177,2.75592384 7.25355492,2.75592384 7.99761617,2.75592384 C7.99761617,2.39550343 7.99761617,1.15017212 7.99761617,3.65575017e-05 C7.00431683,3.65575017e-05 5.8742681,3.65575017e-05 5.37614928,3.65575017e-05 C1.66283138,-0.000146230008 1.75030493,2.64968774 1.75030493,3.04523991 Z" id="Facebook"></path>
                </g>
            </g>
        </g>
    </g>
</svg>