<?xml version="1.0" encoding="UTF-8"?>
<svg width="6px" height="13px" viewBox="0 0 6 13" version="1.1" xmlns="http://www.w3.org/2000/svg" xmlns:xlink="http://www.w3.org/1999/xlink">
    <!-- Generator: Sketch 48.2 (47327) - http://www.bohemiancoding.com/sketch -->
    <title>facebook-letter-logo</title>
    <desc>Created with Sketch.</desc>
    <defs></defs>
    <g id="footer" stroke="none" stroke-width="1" fill="none" fill-rule="evenodd" transform="translate(-1392.000000, -276.000000)">
        <g fill="#A8C688" fill-rule="nonzero" id="facebook-letter-logo">
            <g transform="translate(1392.000000, 276.000000)">
                <path d="M1.30933663,2.47425743 C1.30933663,2.79620792 1.30933663,4.23320792 1.30933663,4.23320792 L0.0206732673,4.23320792 L0.0206732673,6.38405941 L1.30933663,6.38405941 L1.30933663,12.7756337 L3.95652475,12.7756337 L3.95652475,6.38423762 L5.73291089,6.38423762 C5.73291089,6.38423762 5.89927723,5.35292079 5.97992079,4.22527723 C5.74871287,4.22527723 3.96653465,4.22527723 3.96653465,4.22527723 C3.96653465,4.22527723 3.96653465,2.9739802 3.96653465,2.75465347 C3.96653465,2.53485149 4.25515842,2.23918812 4.54042574,2.23918812 C4.82515842,2.23918812 5.42610891,2.23918812 5.98271287,2.23918812 C5.98271287,1.94634653 5.98271287,0.934514851 5.98271287,2.97029701e-05 C5.23966337,2.97029701e-05 4.39431683,2.97029701e-05 4.02169307,2.97029701e-05 C1.24390099,-0.000118811881 1.30933663,2.15287129 1.30933663,2.47425743 Z" id="Facebook"></path>
            </g>
        </g>
    </g>
</svg>