<?xml version="1.0" encoding="UTF-8"?>
<svg width="13px" height="13px" viewBox="0 0 13 13" version="1.1" xmlns="http://www.w3.org/2000/svg" xmlns:xlink="http://www.w3.org/1999/xlink">
    <!-- Generator: Sketch 48.2 (47327) - http://www.bohemiancoding.com/sketch -->
    <title>instagram-logo</title>
    <desc>Created with Sketch.</desc>
    <defs></defs>
    <g id="footer" stroke="none" stroke-width="1" fill="none" fill-rule="evenodd" transform="translate(-1477.000000, -275.000000)">
        <g fill-rule="nonzero" id="instagram-logo">
            <g transform="translate(1477.000000, 275.000000)">
                <path d="M9.36045882,0 L3.56765882,0 C1.60045294,0 0,1.60052941 0,3.56773529 L0,9.36053529 C0,11.3278176 1.60045294,12.9282706 3.56765882,12.9282706 L9.36045882,12.9282706 C11.3278176,12.9282706 12.9282706,11.3277412 12.9282706,9.36053529 L12.9282706,3.56773529 C12.9283471,1.60052941 11.3278176,0 9.36045882,0 Z" id="Shape" fill="#A8C688"></path>
                <path d="M6.46413529,3.133 C4.62723529,3.133 3.13284706,4.62738824 3.13284706,6.46428824 C3.13284706,8.30111176 4.62723529,9.79542353 6.46413529,9.79542353 C8.30103529,9.79542353 9.79542353,8.30111176 9.79542353,6.46428824 C9.79542353,4.62738824 8.30103529,3.133 6.46413529,3.133 Z M6.46413529,8.64828824 C5.2598,8.64828824 4.27990588,7.66854706 4.27990588,6.46421176 C4.27990588,5.2598 5.25972353,4.27998235 6.46413529,4.27998235 C7.66854706,4.27998235 8.64836471,5.2598 8.64836471,6.46421176 C8.64836471,7.66854706 7.66847059,8.64828824 6.46413529,8.64828824 Z" id="Shape" fill="#1B1B1B"></path>
                <path d="M9.93513529,2.16037059 C9.71413529,2.16037059 9.49703529,2.24984118 9.34095882,2.40660588 C9.18411765,2.56260588 9.09395882,2.77978235 9.09395882,3.00154706 C9.09395882,3.22262353 9.18419412,3.43972353 9.34095882,3.59648824 C9.49695882,3.75248824 9.71413529,3.84272353 9.93513529,3.84272353 C10.1569,3.84272353 10.3733118,3.75248824 10.5300765,3.59648824 C10.6868412,3.43972353 10.7763118,3.22254706 10.7763118,3.00154706 C10.7763118,2.77978235 10.6868412,2.56260588 10.5300765,2.40660588 C10.3740765,2.24984118 10.1569,2.16037059 9.93513529,2.16037059 Z" id="Shape" fill="#1B1B1B"></path>
            </g>
        </g>
    </g>
</svg>