<?xml version="1.0" encoding="UTF-8"?>
<svg width="14px" height="13px" viewBox="0 0 14 13" version="1.1" xmlns="http://www.w3.org/2000/svg" xmlns:xlink="http://www.w3.org/1999/xlink">
    <!-- Generator: sketchtool 49.2 (51160) - http://www.bohemiancoding.com/sketch -->
    <title>75F0CEE8-99C3-43A0-BA42-A4002B2CE21C</title>
    <desc>Created with sketchtool.</desc>
    <defs></defs>
    <g id="Page-1" stroke="none" stroke-width="1" fill="none" fill-rule="evenodd">
        <g id="Desktop-HD-Copy-8" transform="translate(-798.000000, -6017.000000)" fill-rule="nonzero">
            <g id="Group-9" transform="translate(640.000000, 6014.000000)">
                <g id="instagram-logo-copy" transform="translate(158.899482, 3.200000)">
                    <path d="M9.03349643,0 L3.44303991,0 C1.54454885,0 0,1.54063138 0,3.43421677 L0,9.01022767 C0,10.9038867 1.54454885,12.4444444 3.44303991,12.4444444 L9.03349643,12.4444444 C10.9321351,12.4444444 12.4766839,10.9038131 12.4766839,9.01022767 L12.4766839,3.43421677 C12.4767577,1.54063138 10.9321351,0 9.03349643,0 Z" id="Shape" fill="#FFFFFF"></path>
                    <path d="M5.79274611,3.46666667 C4.07280933,3.46666667 2.67357513,4.86231731 2.67357513,6.5778492 C2.67357513,8.29330966 4.07280933,9.68888889 5.79274611,9.68888889 C7.5126829,9.68888889 8.9119171,8.29330966 8.9119171,6.5778492 C8.9119171,4.86231731 7.5126829,3.46666667 5.79274611,3.46666667 Z M5.79274611,8.6175474 C4.66509596,8.6175474 3.74759585,7.70253993 3.74759585,6.57777778 C3.74759585,5.45294421 4.66502435,4.53786532 5.79274611,4.53786532 C6.92046787,4.53786532 7.83789638,5.45294421 7.83789638,6.57777778 C7.83789638,7.70253993 6.92039627,8.6175474 5.79274611,8.6175474 Z" id="Shape" fill="#2A2A2A"></path>
                    <path d="M9.80310881,2.57777778 C9.56896844,2.57777778 9.33895996,2.67232323 9.17360339,2.8379798 C9.00743665,3.00282828 8.9119171,3.23232323 8.9119171,3.46666667 C8.9119171,3.70028283 9.00751766,3.92969697 9.17360339,4.09535354 C9.33887894,4.26020202 9.56896844,4.35555556 9.80310881,4.35555556 C10.0380593,4.35555556 10.2673387,4.26020202 10.4334244,4.09535354 C10.5995101,3.92969697 10.6943005,3.70020202 10.6943005,3.46666667 C10.6943005,3.23232323 10.5995101,3.00282828 10.4334244,2.8379798 C10.2681488,2.67232323 10.0380593,2.57777778 9.80310881,2.57777778 Z" id="Shape" fill="#2A2A2A"></path>
                </g>
            </g>
        </g>
    </g>
</svg>