<?xml version="1.0" encoding="UTF-8"?>
<svg width="15px" height="15px" viewBox="0 0 15 15" version="1.1" xmlns="http://www.w3.org/2000/svg" xmlns:xlink="http://www.w3.org/1999/xlink">
    <!-- Generator: sketchtool 49.2 (51160) - http://www.bohemiancoding.com/sketch -->
    <title>88890B70-DF6F-478C-9B3D-D1DA8C3689A9</title>
    <desc>Created with sketchtool.</desc>
    <defs></defs>
    <g id="Page-1" stroke="none" stroke-width="1" fill="none" fill-rule="evenodd">
        <g id="Desktop-HD-Copy-8" transform="translate(-744.000000, -6015.000000)" fill="#FFFFFF" fill-rule="nonzero">
            <g id="Group-9" transform="translate(640.000000, 6014.000000)">
                <g id="linkedin-logo-copy" transform="translate(104.358549, 1.600000)">
                    <path d="M14.2298545,8.33346326 L14.2298545,13.5807373 L11.1799359,13.5807373 L11.1799359,8.68489404 C11.1799359,7.4550183 10.7387981,6.61567621 9.63482865,6.61567621 C8.792088,6.61567621 8.29057245,7.18133127 8.06993737,7.72850735 C7.98947785,7.92412065 7.96876746,8.19638876 7.96876746,8.47020779 L7.96876746,13.5807373 L4.91782331,13.5807373 C4.91782331,13.5807373 4.95891324,5.28878577 4.91782331,4.42967775 L7.96846971,4.42967775 L7.96846971,5.72680382 C7.96228306,5.73650528 7.95424373,5.74696571 7.948421,5.7563702 L7.96846971,5.7563702 L7.96846971,5.72680382 C8.37377791,5.10416087 9.09761581,4.21469451 10.7177899,4.21469451 C12.7250762,4.21466151 14.2298545,5.52261098 14.2298545,8.33346326 Z M1.72640583,0.018412993 C0.682681798,0.018412993 0,0.701244651 0,1.59919154 C0,2.47757051 0.662930839,3.18112503 1.6859114,3.18112503 L1.70629095,3.18112503 C2.77022911,3.18112503 3.43190277,2.4777025 3.43190277,1.59919154 C3.41185406,0.701244651 2.77022911,0.018412993 1.72640583,0.018412993 Z M0.181199332,13.5807373 L3.23098556,13.5807373 L3.23098556,4.42967775 L0.181199332,4.42967775 L0.181199332,13.5807373 Z" id="LinkedIn"></path>
                </g>
            </g>
        </g>
    </g>
</svg>