<?xml version="1.0" encoding="UTF-8"?>
<svg width="13px" height="13px" viewBox="0 0 13 13" version="1.1" xmlns="http://www.w3.org/2000/svg" xmlns:xlink="http://www.w3.org/1999/xlink">
    <!-- Generator: Sketch 48.2 (47327) - http://www.bohemiancoding.com/sketch -->
    <title>linkedin-logo</title>
    <desc>Created with Sketch.</desc>
    <defs></defs>
    <g id="footer" stroke="none" stroke-width="1" fill="none" fill-rule="evenodd" transform="translate(-1433.000000, -275.000000)">
        <g fill="#A8C688" fill-rule="nonzero" id="linkedin-logo">
            <g transform="translate(1433.000000, 275.000000)">
                <path d="M12.9733666,7.61730626 L12.9733666,12.4136427 L10.1927541,12.4136427 L10.1927541,7.93853596 C10.1927541,6.81435267 9.79056845,6.04714153 8.78407889,6.04714153 C8.01575174,6.04714153 7.55851972,6.56418561 7.35736659,7.06433875 C7.2840116,7.24314153 7.26512993,7.4920116 7.26512993,7.7422993 L7.26512993,12.4136427 L4.48358237,12.4136427 C4.48358237,12.4136427 4.52104408,4.83428074 4.48358237,4.04900232 L7.26485847,4.04900232 L7.26485847,5.23465661 C7.2592181,5.24352436 7.25188863,5.25308585 7.24658005,5.26168213 L7.26485847,5.26168213 L7.26485847,5.23465661 C7.63437819,4.66552204 8.29430162,3.8524942 9.77141531,3.8524942 C11.6014594,3.85246404 12.9733666,5.0480116 12.9733666,7.61730626 Z M1.5739652,0.0168306265 C0.622401392,0.0168306265 0,0.640981439 0,1.46176102 C0,2.26465429 0.604394432,2.9077471 1.5370464,2.9077471 L1.55562645,2.9077471 C2.52561949,2.9077471 3.12886775,2.26477494 3.12886775,1.46176102 C3.11058933,0.640981439 2.52561949,0.0168306265 1.5739652,0.0168306265 Z M0.165199536,12.4136427 L2.94569142,12.4136427 L2.94569142,4.04900232 L0.165199536,4.04900232 L0.165199536,12.4136427 Z" id="LinkedIn"></path>
            </g>
        </g>
    </g>
</svg>