<?xml version="1.0" encoding="UTF-8"?>
<svg width="19px" height="21px" viewBox="0 0 19 21" version="1.1" xmlns="http://www.w3.org/2000/svg" xmlns:xlink="http://www.w3.org/1999/xlink">
    <g id="Page-1" stroke="none" stroke-width="1" fill="none" fill-rule="evenodd">
        <g id="Desktop-HD-Copy-8" transform="translate(-1076.000000, -38.000000)" fill="#FFFFFF">
            <path d="M1085.97348,38 C1083.61166,38 1081.68072,39.9269274 1081.68072,42.2840411 C1081.68072,44.6419773 1083.61157,46.5680821 1085.97348,46.5680821 C1088.33539,46.5680821 1090.26625,44.6420458 1090.26625,42.2840411 C1090.26625,39.9270188 1088.33539,38 1085.97348,38 Z M1085.97348,39.4280137 C1087.5627,39.4280137 1088.83532,40.6980548 1088.83532,42.2840411 C1088.83532,43.8700273 1087.5627,45.1400684 1085.97348,45.1400684 C1084.38426,45.1400684 1083.11164,43.8700273 1083.11164,42.2840411 C1083.11164,40.6980548 1084.38426,39.4280137 1085.97348,39.4280137 Z M1081.72376,49.4241095 C1078.61946,49.4241095 1076.00007,51.6018189 1076.00007,54.4221574 L1076.00007,57.3638656 C1075.99739,57.554863 1076.07162,57.7396045 1076.20577,57.8752773 C1076.33992,58.0118319 1076.52414,58.0876949 1076.71554,58.0876949 C1076.90694,58.0876949 1077.09026,58.0118319 1077.22442,57.8752773 C1077.35946,57.739616 1077.43369,57.5548767 1077.43101,57.3638656 L1077.43101,54.4221574 C1077.43101,52.4961211 1079.27779,50.8521232 1081.72378,50.8521232 L1088.35047,50.8521232 C1088.54186,50.854801 1088.72698,50.7807225 1088.86293,50.6468456 C1088.99976,50.5120777 1089.07578,50.3291183 1089.07578,50.1381072 C1089.07578,49.9470961 1088.99976,49.7641504 1088.86293,49.6293687 C1088.72699,49.4954919 1088.54187,49.4214134 1088.35047,49.4240912 L1081.72376,49.4241095 Z M1090.69737,52.5640977 L1090.69737,54.7061182 L1088.55099,54.7061182 C1088.3596,54.7034404 1088.17449,54.7775189 1088.03854,54.9113958 C1087.90171,55.0461637 1087.82569,55.2291231 1087.82569,55.4201342 C1087.82569,55.6111453 1087.90171,55.794091 1088.03854,55.9288726 C1088.17448,56.0627495 1088.35959,56.136828 1088.55099,56.1341502 L1090.69737,56.1341502 L1090.69737,58.2761707 C1090.69469,58.4671681 1090.76892,58.6519097 1090.90307,58.7875824 C1091.03811,58.9241371 1091.22144,59 1091.41284,59 C1091.60424,59 1091.78756,58.9241371 1091.92262,58.7875824 C1092.05677,58.6519211 1092.131,58.4671818 1092.12831,58.2761707 L1092.12831,56.1341502 L1094.2747,56.1341502 C1094.46608,56.136828 1094.6512,56.0627495 1094.78715,55.9288726 C1094.92398,55.7941047 1095,55.6111453 1095,55.4201342 C1095,55.2291231 1094.92398,55.0461774 1094.78715,54.9113958 C1094.65121,54.7775189 1094.4661,54.7034404 1094.2747,54.7061182 L1092.12831,54.7061182 L1092.12831,52.5640977 C1092.131,52.3713158 1092.05498,52.1856855 1091.91815,52.0491217 C1091.78221,51.912567 1091.59529,51.8375974 1091.40212,51.8402752 C1091.00769,51.8465128 1090.69199,52.1696003 1090.69737,52.5640977 Z" id="Page-1"></path>
        </g>
    </g>
</svg>