<?xml version="1.0" encoding="UTF-8"?>
<svg width="15px" height="12px" viewBox="0 0 15 12" version="1.1" xmlns="http://www.w3.org/2000/svg" xmlns:xlink="http://www.w3.org/1999/xlink">
    <!-- Generator: sketchtool 49.2 (51160) - http://www.bohemiancoding.com/sketch -->
    <title>6942E033-8875-42AB-A318-ADD4670D79D4</title>
    <desc>Created with sketchtool.</desc>
    <defs></defs>
    <g id="Page-1" stroke="none" stroke-width="1" fill="none" fill-rule="evenodd">
        <g id="Desktop-HD-Copy-8" transform="translate(-640.000000, -6017.000000)" fill="#FFFFFF" fill-rule="nonzero">
            <g id="Group-9" transform="translate(640.000000, 6014.000000)">
                <g id="twitter-logo-silhouette-copy" transform="translate(0.000000, 3.200000)">
                    <path d="M14.2590674,1.40578165 C13.7342545,1.64256161 13.1711378,1.80314306 12.5794797,1.87483418 C13.1836028,1.50648608 13.646044,0.922234326 13.8652189,0.228192205 C13.2985374,0.569306221 12.6730257,0.81699879 12.0065308,0.951271363 C11.4728176,0.371550714 10.7136621,0.0104618736 9.87163155,0.0104618736 C8.25620969,0.0104618736 6.94640252,1.34410167 6.94640252,2.98801549 C6.94640252,3.22116582 6.97224125,3.44888356 7.02214799,3.66663762 C4.59144299,3.54232873 2.4360638,2.35657855 0.993498188,0.554787703 C0.741331708,0.993901719 0.597878966,1.50556088 0.597878966,2.05173711 C0.597878966,3.08509029 1.11467696,3.99686275 1.89878587,4.53029969 C1.41940628,4.51397821 0.96854482,4.37970564 0.573834265,4.156519 L0.573834265,4.19371678 C0.573834265,5.63622174 1.58247689,6.84012007 2.91989353,7.11412152 C2.67485658,7.18125781 2.41646923,7.21845558 2.14915832,7.21845558 C1.96027227,7.21845558 1.7776071,7.19940595 1.59850669,7.16310966 C1.97094328,8.34705689 3.05088124,9.20801452 4.33039954,9.23161898 C3.32977182,10.0299952 2.06807735,10.5044803 0.697692438,10.5044803 C0.461579058,10.5044803 0.229007146,10.4899618 2.32991296e-05,10.4636529 C1.29468604,11.3101157 2.83170632,11.8036504 4.48366121,11.8036504 C9.86454861,11.8036504 12.8058307,7.26564076 12.8058307,3.33005471 L12.7960218,2.94448366 C13.3707181,2.5271237 13.8678983,2.00274897 14.2590674,1.40578165 Z" id="Shape"></path>
                </g>
            </g>
        </g>
    </g>
</svg>